<?xml version="1.0" standalone="no"?>
<!DOCTYPE svg PUBLIC "-//W3C//DTD SVG 20010904//EN"
 "http://www.w3.org/TR/2001/REC-SVG-20010904/DTD/svg10.dtd">
<svg version="1.0" xmlns="http://www.w3.org/2000/svg"
 width="512.000000pt" height="512.000000pt" viewBox="0 0 512.000000 512.000000"
 preserveAspectRatio="xMidYMid meet">
<metadata>
Created by potrace 1.11, written by Peter Selinger 2001-2013
</metadata>
<g transform="translate(0.000000,512.000000) scale(0.100000,-0.100000)"
fill="#000000" stroke="none">
<path d="M2239 4266 c-2 -2 -31 -7 -64 -10 -33 -4 -67 -9 -75 -11 -8 -2 -31
-6 -50 -9 -62 -10 -89 -16 -117 -27 -16 -6 -28 -9 -28 -8 0 4 -107 -33 -134
-47 -14 -8 -31 -14 -38 -14 -6 0 -13 -5 -15 -11 -2 -5 -11 -11 -21 -13 -10 -1
-26 -9 -35 -17 -10 -8 -36 -26 -58 -42 -69 -46 -194 -191 -188 -217 1 -3 -3
-16 -8 -30 -5 -14 -11 -32 -13 -41 -2 -9 -8 -25 -14 -35 -6 -11 -43 -104 -81
-209 -39 -104 -75 -198 -80 -207 -6 -10 -10 -25 -10 -33 0 -8 -5 -15 -11 -15
-5 0 -8 -4 -4 -9 3 -5 -3 -31 -13 -58 -24 -61 -29 -76 -31 -86 0 -4 -8 -21
-16 -37 -8 -16 -15 -31 -15 -32 2 -4 -5 -23 -27 -83 -10 -27 -17 -53 -15 -57
1 -5 -2 -8 -8 -8 -6 0 -9 -3 -9 -7 1 -5 0 -10 -1 -13 -1 -3 -3 -12 -5 -20 -2
-8 -13 -39 -24 -69 -11 -30 -18 -58 -15 -62 3 -5 1 -9 -5 -9 -5 0 -13 -15 -16
-32 -4 -18 -11 -37 -14 -43 -6 -8 -12 -26 -36 -105 -1 -3 -5 -12 -8 -20 -9
-20 -97 -281 -102 -300 -14 -60 -51 -176 -58 -178 -4 -2 -5 -7 -2 -12 3 -4 -2
-26 -10 -49 -8 -23 -12 -41 -8 -41 3 0 0 -6 -6 -14 -6 -8 -11 -18 -10 -22 1
-5 0 -11 -1 -14 -1 -3 -3 -12 -5 -20 -2 -8 -7 -31 -11 -50 -4 -19 -8 -100 -8
-180 -1 -84 -5 -148 -11 -152 -7 -5 -7 -8 0 -8 8 0 11 -90 6 -187 -1 -7 -8
-13 -16 -13 -26 0 -85 -33 -91 -52 -3 -10 -9 -18 -14 -18 -9 0 -22 -59 -24
-113 0 -20 4 -37 9 -37 7 0 7 -3 0 -8 -5 -4 -10 -18 -10 -32 0 -14 -4 -25 -10
-25 -42 -3 -105 -18 -105 -26 0 -6 -4 -8 -9 -4 -13 8 -78 -56 -92 -91 -12 -31
-15 -80 -5 -104 3 -8 8 -26 10 -40 6 -26 94 -368 100 -385 2 -5 3 -13 2 -16 0
-3 5 -13 12 -21 19 -23 8 -24 -185 -23 -107 1 -169 -3 -166 -9 4 -5 1 -6 -8 0
-8 4 -35 9 -61 9 l-48 1 0 -143 0 -143 2560 0 2560 0 0 2134 0 2133 -1439 1
c-791 1 -1440 0 -1442 -2z"/>
</g>
</svg>
